<?xml version="1.0" encoding="utf-8"?>
<svg xmlns="http://www.w3.org/2000/svg" viewBox="0 0 16 16" width="16px" height="16px" xmlns:bx="https://boxy-svg.com"><defs><bx:export><bx:file format="svg" path="block.svg"/></bx:export></defs><g transform="matrix(1, 0, 0, 1, -1.408997, -0.279)" style="transform-origin: 1.409px 0px;"><rect id="XMLID_12_" x="36.6" y="63.599" transform="matrix(0.707107, -0.707107, 0.707107, 0.707107, -66.958748, -7.277072)" fill="#AF4646" width="12.7" height="2.8" style="stroke-width: 1;"/><path id="XMLID_59_" fill="#AF4646" d="M 9.409 0.279 C 5.009 0.279 1.409 3.879 1.409 8.279 C 1.409 12.679 5.009 16.279 9.409 16.279 C 13.809 16.279 17.409 12.679 17.409 8.279 C 17.409 3.879 13.809 0.279 9.409 0.279 Z M 9.409 13.279 C 6.609 13.279 4.409 11.079 4.409 8.279 C 4.409 5.479 6.609 3.279 9.409 3.279 C 12.209 3.279 14.409 5.479 14.409 8.279 C 14.409 11.079 12.209 13.279 9.409 13.279 Z" style="stroke-width: 1;"/></g></svg>