<?xml version="1.0" encoding="utf-8"?>
<svg xmlns="http://www.w3.org/2000/svg" viewBox="0 0.2 16 16" width="16px" height="16px" xmlns:bx="https://boxy-svg.com"><defs><bx:export><bx:file format="svg" path="tray-loading-mask.svg"/></bx:export></defs><path style="fill: rgb(2, 2, 2);" d="M 1.506 11.724 L 0.004 3.167 L 0.048 3.208 L 0 3.163 L 9.185 0.398 L 15.21 5.435 L 15.309 5.533 C 15.704 5.928 16 6.521 16 7.311 C 16 7.41 16 7.509 16 7.607 L 15.901 8.101 L 15.21 12.151 L 7.012 16.002 L 1.506 11.724 Z M 3 9.2 L 5 9.2 L 5 7.2 L 3 7.2 L 3 9.2 Z M 7 9.2 L 9 9.2 L 9 7.2 L 7 7.2 L 7 9.2 Z M 11 9.2 L 13 9.2 L 13 7.2 L 11 7.2 L 11 9.2 Z" id="object-0"/><g transform="matrix(1, 0, 0, 1, 0, 1)"/></svg>